<svg width="73" height="72" viewBox="0 0 73 72" fill="none" xmlns="http://www.w3.org/2000/svg">
<path d="M0.914795 36C0.914795 45.5478 4.49693 54.7045 10.8732 61.4558C17.2494 68.2072 25.8974 72 34.9148 72C43.9322 72 52.5802 68.2072 58.9564 61.4558C65.3327 54.7045 68.9148 45.5478 68.9148 36C68.9148 26.4522 65.3327 17.2955 58.9564 10.5442C52.5802 3.79285 43.9322 0 34.9148 0C25.8974 0 17.2494 3.79285 10.8732 10.5442C4.49693 17.2955 0.914795 26.4522 0.914795 36Z" fill="#D9EDFF"/>
<path d="M50.95 58.7754H19.245C18.6774 58.7754 18.133 58.5366 17.7316 58.1116C17.3302 57.6866 17.1047 57.1102 17.1047 56.5092V13.05C17.1047 12.4234 17.3398 11.8225 17.7583 11.3795C18.1767 10.9364 18.7442 10.6875 19.336 10.6875H50.854C51.4457 10.6875 52.0133 10.9364 52.4317 11.3795C52.8502 11.8225 53.0852 12.4234 53.0852 13.05V56.5092C53.0855 57.1094 52.8607 57.6851 52.4604 58.11C52.0601 58.5349 51.5169 58.7742 50.95 58.7754Z" fill="#B0D9FF"/>
<path d="M50.95 58.7754H19.245C18.6774 58.7754 18.133 58.5366 17.7316 58.1116C17.3302 57.6866 17.1047 57.1102 17.1047 56.5092V13.05C17.1047 12.4234 17.3398 11.8225 17.7583 11.3795C18.1767 10.9364 18.7442 10.6875 19.336 10.6875H50.854C51.4457 10.6875 52.0133 10.9364 52.4317 11.3795C52.8502 11.8225 53.0852 12.4234 53.0852 13.05V56.5092C53.0855 57.1094 52.8607 57.6851 52.4604 58.11C52.0601 58.5349 51.5169 58.7742 50.95 58.7754Z" stroke="#020064" stroke-linecap="round" stroke-linejoin="round"/>
<path d="M20.645 14.4333H49.5467V55.0278H20.645V14.4333Z" fill="white"/>
<path d="M49.5467 28.3401L41.1538 37.9701C40.6245 38.579 40.3452 39.3855 40.377 40.2123C40.4089 41.0392 40.7494 41.8189 41.3238 42.3801C41.6842 42.7319 42.1229 42.9814 42.5988 43.1055L39.8703 45.9954L40.2877 46.4373L36.6021 50.3388C36.4371 50.5127 36.3243 50.7344 36.2779 50.976C36.2314 51.2176 36.2535 51.4683 36.3412 51.6967C36.4289 51.9251 36.5784 52.1209 36.7709 52.2596C36.9634 52.3983 37.1904 52.4737 37.4232 52.4763C37.5088 52.4761 37.5943 52.4667 37.6782 52.4484C40.9082 51.7212 42.5512 50.6709 42.5699 49.3227L42.7926 49.086L43.6273 49.9698L45.6801 47.79C45.8255 47.9133 45.9815 48.022 46.1459 48.1149C46.6887 48.4208 47.3082 48.5395 47.9178 48.4543C48.5274 48.3691 49.0967 48.0843 49.5459 47.6397L49.5467 28.3401Z" fill="#B0D9FF"/>
<path d="M20.645 14.4333H49.5467V55.0278H20.645V14.4333Z" stroke="#020064" stroke-linecap="round" stroke-linejoin="round"/>
<path d="M24.7649 24.426H42.7874" stroke="#020064" stroke-linecap="round" stroke-linejoin="round"/>
<path d="M24.7649 30.0465H42.7874" stroke="#020064" stroke-linecap="round" stroke-linejoin="round"/>
<path d="M24.7649 36.2925H37.3262" stroke="#020064" stroke-linecap="round" stroke-linejoin="round"/>
<path d="M27.0234 8.81274H43.1683C43.4515 8.8137 43.7229 8.9335 43.9228 9.14589C44.1228 9.35828 44.235 9.64595 44.235 9.94584V15.7958C44.235 16.0966 44.1222 16.385 43.9214 16.5977C43.7205 16.8104 43.4481 16.9298 43.164 16.9298H27.0242C26.7402 16.9298 26.4678 16.8104 26.2669 16.5977C26.0661 16.385 25.9532 16.0966 25.9532 15.7958V9.94584C25.9532 9.64533 26.066 9.35712 26.2667 9.14462C26.4674 8.93212 26.7396 8.81274 27.0234 8.81274Z" fill="white"/>
<path d="M27.0234 8.81274H43.1683C43.4515 8.8137 43.7229 8.9335 43.9228 9.14589C44.1228 9.35828 44.235 9.64595 44.235 9.94584V15.7958C44.235 16.0966 44.1222 16.385 43.9214 16.5977C43.7205 16.8104 43.4481 16.9298 43.164 16.9298H27.0242C26.7402 16.9298 26.4678 16.8104 26.2669 16.5977C26.0661 16.385 25.9532 16.0966 25.9532 15.7958V9.94584C25.9532 9.64533 26.066 9.35712 26.2667 9.14462C26.4674 8.93212 26.7396 8.81274 27.0234 8.81274Z" stroke="#020064" stroke-linecap="round" stroke-linejoin="round"/>
<path d="M30.0817 14.4333H40.1091" stroke="#020064" stroke-linecap="round" stroke-linejoin="round"/>
<path d="M32.4413 8.18819C32.4413 9.01646 32.752 9.8108 33.3052 10.3965C33.8583 10.9822 34.6085 11.3112 35.3908 11.3112C36.173 11.3112 36.9233 10.9822 37.4764 10.3965C38.0295 9.8108 38.3403 9.01646 38.3403 8.18819C38.3403 7.35991 38.0295 6.56557 37.4764 5.97989C36.9233 5.39422 36.173 5.06519 35.3908 5.06519C34.6085 5.06519 33.8583 5.39422 33.3052 5.97989C32.752 6.56557 32.4413 7.35991 32.4413 8.18819Z" fill="white"/>
<path d="M32.4413 8.18819C32.4413 9.01646 32.752 9.8108 33.3052 10.3965C33.8583 10.9822 34.6085 11.3112 35.3908 11.3112C36.173 11.3112 36.9233 10.9822 37.4764 10.3965C38.0295 9.8108 38.3403 9.01646 38.3403 8.18819C38.3403 7.35991 38.0295 6.56557 37.4764 5.97989C36.9233 5.39422 36.173 5.06519 35.3908 5.06519C34.6085 5.06519 33.8583 5.39422 33.3052 5.97989C32.752 6.56557 32.4413 7.35991 32.4413 8.18819Z" stroke="#020064" stroke-linecap="round" stroke-linejoin="round"/>
<path d="M47.5135 35.9037L57.8453 39.9843L62.1913 32.6043L50.9578 29.3922L47.5135 35.9037Z" fill="#D9EDFF"/>
<path d="M63.9847 48.3561L71.9866 39.8835C72.0179 39.8516 72.0508 39.8216 72.0852 39.7935C69.4069 37.3329 68.7464 32.1201 63.5954 29.2725C56.815 25.5231 48.4289 26.4177 41.0628 36.1575C40.8941 36.3695 40.7671 36.615 40.6892 36.8796C40.6113 37.1441 40.584 37.4225 40.6089 37.6984C40.6339 37.9743 40.7106 38.2422 40.8345 38.4863C40.9585 38.7305 41.1271 38.9459 41.3307 39.1202C41.5343 39.2944 41.7687 39.4239 42.0201 39.501C42.2715 39.5782 42.5349 39.6014 42.7949 39.5694C43.055 39.5374 43.3063 39.4508 43.5343 39.3146C43.7623 39.1785 43.9624 38.9956 44.1228 38.7765C44.6113 38.1369 45.102 37.5414 45.595 36.99C45.7682 37.1859 45.9758 37.3442 46.2061 37.4562C53.9131 43.6347 55.4711 44.4195 57.3564 45.1962C60.2719 46.3959 61.5588 46.9755 63.7025 49.0302C63.7155 48.7765 63.8159 48.5367 63.9847 48.3561ZM58.7045 35.1684C58.0552 36.0003 57.1516 36.5658 56.1502 36.7669C55.1487 36.9681 54.1123 36.7923 53.2203 36.27L48.6626 34.0632C51.3223 32.0022 54.0057 31.1418 56.6781 31.5108C58.9519 31.8204 59.478 33.9498 58.7045 35.1684Z" fill="white"/>
<path d="M22.1146 66.006C22.1146 66.4204 23.4623 66.8178 25.8612 67.1108C28.2601 67.4038 31.5137 67.5684 34.9063 67.5684C38.2988 67.5684 41.5524 67.4038 43.9513 67.1108C46.3502 66.8178 47.6979 66.4204 47.6979 66.006C47.6979 65.5916 46.3502 65.1942 43.9513 64.9012C41.5524 64.6082 38.2988 64.4436 34.9063 64.4436C31.5137 64.4436 28.2601 64.6082 25.8612 64.9012C23.4623 65.1942 22.1146 65.5916 22.1146 66.006Z" fill="#B0D9FF"/>
<path d="M26.5653 42.7823C26.2603 43.105 26.0352 43.5024 25.91 43.9392C25.7847 44.376 25.7631 44.8388 25.8471 45.2866C25.9312 45.7343 26.1182 46.1532 26.3917 46.5061C26.6651 46.8591 27.0166 47.1351 27.4149 47.3099C27.8132 47.4846 28.2461 47.5526 28.6751 47.5079C29.1042 47.4632 29.5162 47.3071 29.8747 47.0534C30.2332 46.7998 30.527 46.4565 30.7302 46.0538C30.9335 45.6512 31.0397 45.2018 31.0397 44.7453V45.2997C31.0341 45.595 31.0842 45.8887 31.187 46.1633C31.2899 46.4379 31.4435 46.6881 31.6388 46.8991C31.8341 47.1101 32.0673 47.2777 32.3245 47.3922C32.5818 47.5066 32.858 47.5656 33.137 47.5656C33.4161 47.5656 33.6923 47.5066 33.9496 47.3922C34.2068 47.2777 34.44 47.1101 34.6353 46.8991C34.8306 46.6881 34.9842 46.4379 35.0871 46.1633C35.1899 45.8887 35.24 45.595 35.2344 45.2997C35.2344 45.8885 35.4554 46.4533 35.8486 46.8696C36.2419 47.286 36.7752 47.5199 37.3314 47.5199H38.9039" stroke="#020064" stroke-linecap="round" stroke-linejoin="round"/>
<path d="M52.5744 36.7552C52.8326 36.7698 53.0856 36.8381 53.3188 36.9563C53.5521 37.0744 53.7611 37.24 53.9339 37.4437C54.1066 37.6474 54.2398 37.8851 54.3258 38.1433C54.4118 38.4015 54.449 38.6751 54.4351 38.9485L54.0891 45.7111C54.0774 45.986 54.0144 46.2559 53.9036 46.5049C53.7928 46.7539 53.6366 46.9773 53.4439 47.162C53.2511 47.3467 53.0257 47.4892 52.7807 47.5812C52.5357 47.6732 52.2759 47.7129 52.0163 47.698C51.7567 47.6831 51.5025 47.6138 51.2683 47.4943C51.0341 47.3748 50.8246 47.2073 50.6519 47.0015C50.4792 46.7958 50.3467 46.5559 50.262 46.2956C50.1774 46.0353 50.1423 45.7599 50.1587 45.4852L50.5047 38.7235C50.5328 38.1719 50.7666 37.6547 51.1547 37.2856C51.5428 36.9165 52.0535 36.7257 52.5744 36.7552Z" fill="#D9EDFF" stroke="#020064" stroke-linecap="round" stroke-linejoin="round"/>
<path d="M50.5412 36.1053C51.0018 36.3652 51.346 36.8082 51.4982 37.3367C51.6505 37.8653 51.5982 38.4363 51.353 38.9241L49.0044 43.7643C48.8829 44.0058 48.7177 44.2196 48.5182 44.3935C48.3186 44.5674 48.0887 44.698 47.8415 44.7778C47.5942 44.8576 47.3346 44.8851 47.0774 44.8587C46.8201 44.8322 46.5703 44.7524 46.3422 44.6238C46.1141 44.4951 45.9122 44.3202 45.748 44.1089C45.5837 43.8976 45.4604 43.6541 45.385 43.3924C45.3096 43.1306 45.2837 42.8557 45.3086 42.5834C45.3336 42.311 45.409 42.0465 45.5305 41.805L47.879 36.9648C48.1245 36.4771 48.5429 36.1126 49.0421 35.9515C49.5413 35.7903 50.0805 35.8456 50.5412 36.1053Z" fill="#D9EDFF" stroke="#020064" stroke-linecap="round" stroke-linejoin="round"/>
<path d="M71.9866 39.8835C72.0179 39.8516 72.0508 39.8216 72.0852 39.7935C69.4069 37.3329 68.7464 32.1201 63.5954 29.2725C56.815 25.5231 48.4289 26.4177 41.0628 36.1575C40.8941 36.3695 40.7671 36.615 40.6892 36.8796C40.6113 37.1441 40.584 37.4225 40.6089 37.6984C40.6339 37.9743 40.7106 38.2422 40.8345 38.4863C40.9585 38.7305 41.1271 38.9459 41.3307 39.1202C41.5343 39.2944 41.7687 39.4239 42.0201 39.501C42.2715 39.5782 42.5349 39.6014 42.7949 39.5694C43.055 39.5374 43.3063 39.4508 43.5343 39.3146C43.7623 39.1785 43.9624 38.9956 44.1228 38.7765C44.6113 38.1369 45.102 37.5414 45.595 36.99C45.7682 37.1859 45.9758 37.3442 46.2061 37.4562C53.9131 43.6347 55.4711 44.4195 57.3564 45.1962C60.2719 46.3959 61.5588 46.9755 63.7025 49.0302M58.7079 35.1702C58.0582 36.0027 57.1539 36.5684 56.1517 36.7692C55.1495 36.9701 54.1125 36.7935 53.2203 36.27L48.6626 34.0632C51.3223 32.0022 54.0057 31.1418 56.6781 31.5108C58.9519 31.8204 59.478 33.9498 58.7045 35.1684L58.7079 35.1702Z" stroke="#020064" stroke-linecap="round" stroke-linejoin="round"/>
<path d="M57.0004 35.5824L54.4351 31.7601L62.4251 25.7508C62.64 25.5891 62.883 25.4738 63.1401 25.4115C63.3971 25.3492 63.6633 25.3411 63.9233 25.3878C64.1833 25.4344 64.4321 25.5348 64.6554 25.6833C64.8788 25.8317 65.0723 26.0253 65.225 26.253L65.4638 26.6085C65.6166 26.8361 65.7255 27.0934 65.7843 27.3656C65.8431 27.6377 65.8507 27.9195 65.8067 28.1948C65.7626 28.4701 65.6678 28.7336 65.5276 28.97C65.3874 29.2065 65.2045 29.4115 64.9895 29.5731L57.0004 35.5824Z" fill="#B0D9FF"/>
<path d="M57.0004 35.5824L54.4351 31.7601L62.4251 25.7508C62.64 25.5891 62.883 25.4738 63.1401 25.4115C63.3971 25.3492 63.6633 25.3411 63.9233 25.3878C64.1833 25.4344 64.4321 25.5348 64.6554 25.6833C64.8788 25.8317 65.0723 26.0253 65.225 26.253L65.4638 26.6085C65.6166 26.8361 65.7255 27.0934 65.7843 27.3656C65.8431 27.6377 65.8507 27.9195 65.8067 28.1948C65.7626 28.4701 65.6678 28.7336 65.5276 28.97C65.3874 29.2065 65.2045 29.4115 64.9895 29.5731L57.0004 35.5824Z" stroke="#020064" stroke-linecap="round" stroke-linejoin="round"/>
<path d="M54.7844 29.5812L60.4004 25.3575C60.5569 25.2343 60.7353 25.146 60.9249 25.0977C61.1145 25.0495 61.3114 25.0424 61.5037 25.0769C61.696 25.1114 61.8796 25.1867 62.0437 25.2983C62.2077 25.41 62.3487 25.5556 62.4582 25.7265" stroke="#020064" stroke-linecap="round" stroke-linejoin="round"/>
<path d="M41.8729 42.4872L37.9281 45.4572C37.8409 45.5214 37.7757 45.6138 37.7423 45.7205C37.7089 45.8273 37.7091 45.9426 37.7428 46.0492C37.7765 46.1558 37.8419 46.248 37.9292 46.312C38.0166 46.376 38.1211 46.4082 38.2273 46.404C39.8814 46.332 42.2452 46.0143 42.2104 44.7921L43.0128 44.1891L41.8729 42.4872Z" fill="#B0D9FF" stroke="#020064" stroke-linecap="round" stroke-linejoin="round"/>
<path d="M43.3 44.6111L41.8754 42.4871C41.7999 42.3745 41.7698 42.2347 41.7916 42.0985C41.8134 41.9623 41.8855 41.8408 41.9918 41.7608L43.997 40.2524L45.9919 43.2224L43.98 44.7299C43.8745 44.8083 43.7442 44.8398 43.6171 44.8176C43.4899 44.7954 43.3761 44.7213 43.3 44.6111Z" fill="white"/>
<path d="M43.3 44.6111L41.8754 42.4871C41.7999 42.3745 41.7698 42.2347 41.7916 42.0985C41.8134 41.9623 41.8855 41.8408 41.9918 41.7608L43.997 40.2524L45.9919 43.2224L43.98 44.7299C43.8745 44.8083 43.7442 44.8398 43.6171 44.8176C43.4899 44.7954 43.3761 44.7213 43.3 44.6111Z" stroke="#020064" stroke-linecap="round" stroke-linejoin="round"/>
<path d="M45.7047 42.8004L44.2801 40.68C44.2052 40.5685 44.1518 40.4425 44.1229 40.3092C44.094 40.1758 44.0902 40.0377 44.1118 39.9028C44.1333 39.7679 44.1798 39.6388 44.2485 39.5229C44.3172 39.4071 44.4068 39.3066 44.5121 39.2274L54.435 31.7601L56.9995 35.5824L47.0766 43.047C46.9712 43.1263 46.8521 43.1828 46.7262 43.2133C46.6002 43.2438 46.4698 43.2477 46.3423 43.2248C46.2149 43.2019 46.093 43.1526 45.9836 43.0798C45.8742 43.007 45.7794 42.9121 45.7047 42.8004Z" fill="#B0D9FF"/>
<path d="M45.7047 42.8004L44.2801 40.68C44.2052 40.5685 44.1518 40.4425 44.1229 40.3092C44.094 40.1758 44.0902 40.0377 44.1118 39.9028C44.1333 39.7679 44.1798 39.6388 44.2485 39.5229C44.3172 39.4071 44.4068 39.3066 44.5121 39.2274L54.435 31.7601L56.9995 35.5824L47.0766 43.047C46.9712 43.1263 46.8521 43.1828 46.7262 43.2133C46.6002 43.2438 46.4698 43.2477 46.3423 43.2248C46.2149 43.2019 46.093 43.1526 45.9836 43.0798C45.8742 43.007 45.7794 42.9121 45.7047 42.8004Z" stroke="#020064" stroke-linecap="round" stroke-linejoin="round"/>
<path d="M58.7046 35.1684C58.0552 36.0003 57.1517 36.5658 56.1502 36.7669C55.1487 36.9681 54.1124 36.7923 53.2204 36.27L47.8399 33.66C47.6042 33.5412 47.3485 33.4733 47.0877 33.4601C46.827 33.447 46.5664 33.4888 46.321 33.5833C46.0757 33.6778 45.8506 33.823 45.6588 34.0105C45.4669 34.198 45.3122 34.424 45.2037 34.6754C45.0951 34.9267 45.0349 35.1985 45.0264 35.4747C45.018 35.751 45.0615 36.0263 45.1545 36.2845C45.2475 36.5428 45.388 36.7789 45.568 36.9792C45.748 37.1794 45.9637 37.3397 46.2028 37.4508C53.9097 43.6302 55.4678 44.4141 57.3531 45.1908" fill="white"/>
<path d="M58.7046 35.1684C58.0552 36.0003 57.1517 36.5658 56.1502 36.7669C55.1487 36.9681 54.1124 36.7923 53.2204 36.27L47.8399 33.66C47.6042 33.5412 47.3485 33.4733 47.0877 33.4601C46.827 33.447 46.5664 33.4888 46.321 33.5833C46.0757 33.6778 45.8506 33.823 45.6588 34.0105C45.4669 34.198 45.3122 34.424 45.2037 34.6754C45.0951 34.9267 45.0349 35.1985 45.0264 35.4747C45.018 35.751 45.0615 36.0263 45.1545 36.2845C45.2475 36.5428 45.388 36.7789 45.568 36.9792C45.748 37.1794 45.9637 37.3397 46.2028 37.4508C53.9097 43.6302 55.4678 44.4141 57.3531 45.1908" stroke="#020064" stroke-linecap="round" stroke-linejoin="round"/>
<path d="M58.7046 35.1684C58.0552 36.0003 57.1517 36.5658 56.1502 36.7669C55.1487 36.9681 54.1124 36.7923 53.2204 36.27L47.8399 33.66C47.6042 33.5412 47.3485 33.4733 47.0877 33.4601C46.827 33.447 46.5664 33.4888 46.321 33.5833C46.0757 33.6778 45.8506 33.823 45.6588 34.0105C45.4669 34.198 45.3122 34.424 45.2037 34.6754C45.0951 34.9267 45.0349 35.1985 45.0264 35.4747C45.018 35.751 45.0615 36.0263 45.1545 36.2845C45.2475 36.5428 45.388 36.7789 45.568 36.9792C45.748 37.1794 45.9637 37.3397 46.2028 37.4508C53.9097 43.6302 55.4678 44.4141 57.3531 45.1908" fill="white"/>
<path d="M58.7046 35.1684C58.0552 36.0003 57.1517 36.5658 56.1502 36.7669C55.1487 36.9681 54.1124 36.7923 53.2204 36.27L47.8399 33.66C47.6042 33.5412 47.3485 33.4733 47.0877 33.4601C46.827 33.447 46.5664 33.4888 46.321 33.5833C46.0757 33.6778 45.8506 33.823 45.6588 34.0105C45.4669 34.198 45.3122 34.424 45.2037 34.6754C45.0951 34.9267 45.0349 35.1985 45.0264 35.4747C45.018 35.751 45.0615 36.0263 45.1545 36.2845C45.2475 36.5428 45.388 36.7789 45.568 36.9792C45.748 37.1794 45.9637 37.3397 46.2028 37.4508C53.9097 43.6302 55.4678 44.4141 57.3531 45.1908" stroke="#020064" stroke-linecap="round" stroke-linejoin="round"/>
</svg>
